<mxfile host="app.diagrams.net" modified="2023-05-03T05:27:36.213Z" agent="Mozilla/5.0 (Windows NT 10.0; Win64; x64) AppleWebKit/537.36 (KHTML, like Gecko) Chrome/112.0.0.0 Safari/537.36 Edg/112.0.1722.64" etag="ECPuUagfsglwsfUyJPIr" version="21.2.6" type="device">
  <diagram name="Page-1" id="13e1069c-82ec-6db2-03f1-153e76fe0fe0">
    <mxGraphModel dx="1434" dy="788" grid="1" gridSize="10" guides="1" tooltips="1" connect="1" arrows="1" fold="1" page="1" pageScale="1" pageWidth="1100" pageHeight="850" background="none" math="0" shadow="0">
      <root>
        <mxCell id="0" />
        <mxCell id="1" parent="0" />
        <mxCell id="7baba1c4bc27f4b0-2" value="FrontEnd" style="shape=umlLifeline;perimeter=lifelinePerimeter;whiteSpace=wrap;html=1;container=1;collapsible=0;recursiveResize=0;outlineConnect=0;rounded=1;shadow=0;comic=0;labelBackgroundColor=none;strokeWidth=1;fontFamily=Verdana;fontSize=12;align=center;" parent="1" vertex="1">
          <mxGeometry x="260" y="80" width="100" height="1300" as="geometry" />
        </mxCell>
        <mxCell id="CH1mQGG2WMRYYYk6lB7n-1" value="Admin&lt;br&gt;Login" style="html=1;points=[];perimeter=orthogonalPerimeter;rounded=0;shadow=0;comic=0;labelBackgroundColor=none;strokeWidth=1;fontFamily=Verdana;fontSize=12;align=center;" parent="7baba1c4bc27f4b0-2" vertex="1">
          <mxGeometry x="45" y="100" width="10" height="170" as="geometry" />
        </mxCell>
        <mxCell id="CH1mQGG2WMRYYYk6lB7n-21" value="Admin&lt;br&gt;Redirrect" style="edgeStyle=orthogonalEdgeStyle;rounded=0;orthogonalLoop=1;jettySize=auto;html=1;" parent="7baba1c4bc27f4b0-2" source="CH1mQGG2WMRYYYk6lB7n-13" target="CH1mQGG2WMRYYYk6lB7n-16" edge="1">
          <mxGeometry relative="1" as="geometry">
            <Array as="points">
              <mxPoint x="10" y="440" />
              <mxPoint x="10" y="520" />
            </Array>
          </mxGeometry>
        </mxCell>
        <mxCell id="CH1mQGG2WMRYYYk6lB7n-22" value="Admin&lt;br&gt;Redirrect" style="edgeStyle=orthogonalEdgeStyle;rounded=0;orthogonalLoop=1;jettySize=auto;html=1;" parent="7baba1c4bc27f4b0-2" source="CH1mQGG2WMRYYYk6lB7n-13" target="CH1mQGG2WMRYYYk6lB7n-17" edge="1">
          <mxGeometry relative="1" as="geometry">
            <Array as="points">
              <mxPoint x="-20" y="430" />
              <mxPoint x="-20" y="850" />
            </Array>
            <mxPoint as="offset" />
          </mxGeometry>
        </mxCell>
        <mxCell id="CH1mQGG2WMRYYYk6lB7n-13" value="Admin&lt;br&gt;Home&lt;br&gt;Page" style="html=1;points=[];perimeter=orthogonalPerimeter;rounded=0;shadow=0;comic=0;labelBackgroundColor=none;strokeWidth=1;fontFamily=Verdana;fontSize=12;align=center;" parent="7baba1c4bc27f4b0-2" vertex="1">
          <mxGeometry x="45" y="290" width="10" height="170" as="geometry" />
        </mxCell>
        <mxCell id="CH1mQGG2WMRYYYk6lB7n-14" value="Login&lt;br&gt;Failed" style="endArrow=classic;html=1;rounded=0;edgeStyle=orthogonalEdgeStyle;curved=1;" parent="7baba1c4bc27f4b0-2" edge="1">
          <mxGeometry width="50" height="50" relative="1" as="geometry">
            <mxPoint x="55" y="155" as="sourcePoint" />
            <mxPoint x="55" y="215" as="targetPoint" />
            <Array as="points">
              <mxPoint x="100" y="155" />
              <mxPoint x="100" y="215" />
            </Array>
          </mxGeometry>
        </mxCell>
        <mxCell id="CH1mQGG2WMRYYYk6lB7n-15" value="Login&lt;br&gt;Success" style="endArrow=classic;html=1;rounded=0;edgeStyle=orthogonalEdgeStyle;curved=1;" parent="7baba1c4bc27f4b0-2" edge="1">
          <mxGeometry width="50" height="50" relative="1" as="geometry">
            <mxPoint x="45" y="240" as="sourcePoint" />
            <mxPoint x="45" y="320" as="targetPoint" />
            <Array as="points">
              <mxPoint y="240" />
              <mxPoint y="320" />
            </Array>
          </mxGeometry>
        </mxCell>
        <mxCell id="CH1mQGG2WMRYYYk6lB7n-17" value="Movies&lt;br&gt;Management" style="html=1;points=[];perimeter=orthogonalPerimeter;rounded=0;shadow=0;comic=0;labelBackgroundColor=none;strokeWidth=1;fontFamily=Verdana;fontSize=12;align=center;" parent="7baba1c4bc27f4b0-2" vertex="1">
          <mxGeometry x="45" y="780" width="10" height="170" as="geometry" />
        </mxCell>
        <mxCell id="CH1mQGG2WMRYYYk6lB7n-18" value="Movie&lt;br&gt;Page" style="html=1;points=[];perimeter=orthogonalPerimeter;rounded=0;shadow=0;comic=0;labelBackgroundColor=none;strokeWidth=1;fontFamily=Verdana;fontSize=12;align=center;" parent="7baba1c4bc27f4b0-2" vertex="1">
          <mxGeometry x="45" y="970" width="10" height="170" as="geometry" />
        </mxCell>
        <mxCell id="CH1mQGG2WMRYYYk6lB7n-16" value="Users&lt;br&gt;Management" style="html=1;points=[];perimeter=orthogonalPerimeter;rounded=0;shadow=0;comic=0;labelBackgroundColor=none;strokeWidth=1;fontFamily=Verdana;fontSize=12;align=center;" parent="7baba1c4bc27f4b0-2" vertex="1">
          <mxGeometry x="45" y="480" width="10" height="170" as="geometry" />
        </mxCell>
        <mxCell id="BLjHXwS-Ki5e7VddTH0n-2" value="User&lt;br&gt;Page" style="html=1;points=[];perimeter=orthogonalPerimeter;rounded=0;shadow=0;comic=0;labelBackgroundColor=none;strokeWidth=1;fontFamily=Verdana;fontSize=12;align=center;" vertex="1" parent="7baba1c4bc27f4b0-2">
          <mxGeometry x="45" y="670" width="10" height="90" as="geometry" />
        </mxCell>
        <mxCell id="BLjHXwS-Ki5e7VddTH0n-6" value="Request Movies&lt;br&gt;Lists" style="endArrow=classic;html=1;rounded=0;" edge="1" parent="7baba1c4bc27f4b0-2">
          <mxGeometry width="50" height="50" relative="1" as="geometry">
            <mxPoint x="55" y="800" as="sourcePoint" />
            <mxPoint x="185" y="800" as="targetPoint" />
            <Array as="points">
              <mxPoint x="130" y="800" />
            </Array>
          </mxGeometry>
        </mxCell>
        <mxCell id="BLjHXwS-Ki5e7VddTH0n-7" value="Response Movies&lt;br&gt;WIth Order" style="endArrow=classic;html=1;rounded=0;" edge="1" parent="7baba1c4bc27f4b0-2">
          <mxGeometry width="50" height="50" relative="1" as="geometry">
            <mxPoint x="185" y="830" as="sourcePoint" />
            <mxPoint x="55" y="830" as="targetPoint" />
            <Array as="points">
              <mxPoint x="120" y="830" />
            </Array>
          </mxGeometry>
        </mxCell>
        <mxCell id="BLjHXwS-Ki5e7VddTH0n-9" value="Movie&lt;br&gt;Page" style="html=1;points=[];perimeter=orthogonalPerimeter;rounded=0;shadow=0;comic=0;labelBackgroundColor=none;strokeWidth=1;fontFamily=Verdana;fontSize=12;align=center;" vertex="1" parent="7baba1c4bc27f4b0-2">
          <mxGeometry x="45" y="1160" width="10" height="120" as="geometry" />
        </mxCell>
        <mxCell id="BLjHXwS-Ki5e7VddTH0n-10" value="Redirrect" style="endArrow=classic;html=1;rounded=0;edgeStyle=orthogonalEdgeStyle;" edge="1" parent="7baba1c4bc27f4b0-2" source="CH1mQGG2WMRYYYk6lB7n-16" target="BLjHXwS-Ki5e7VddTH0n-2">
          <mxGeometry width="50" height="50" relative="1" as="geometry">
            <mxPoint x="90" y="690" as="sourcePoint" />
            <mxPoint x="140" y="640" as="targetPoint" />
            <Array as="points">
              <mxPoint x="100" y="645" />
              <mxPoint x="100" y="690" />
            </Array>
          </mxGeometry>
        </mxCell>
        <mxCell id="BLjHXwS-Ki5e7VddTH0n-11" value="Redirrect" style="endArrow=classic;html=1;rounded=0;edgeStyle=orthogonalEdgeStyle;" edge="1" parent="7baba1c4bc27f4b0-2">
          <mxGeometry width="50" height="50" relative="1" as="geometry">
            <mxPoint x="55" y="940" as="sourcePoint" />
            <mxPoint x="55" y="985" as="targetPoint" />
            <Array as="points">
              <mxPoint x="100" y="940" />
              <mxPoint x="100" y="985" />
            </Array>
          </mxGeometry>
        </mxCell>
        <mxCell id="BLjHXwS-Ki5e7VddTH0n-12" value="Redirrect" style="endArrow=classic;html=1;rounded=0;edgeStyle=orthogonalEdgeStyle;" edge="1" parent="7baba1c4bc27f4b0-2" source="CH1mQGG2WMRYYYk6lB7n-17" target="BLjHXwS-Ki5e7VddTH0n-9">
          <mxGeometry width="50" height="50" relative="1" as="geometry">
            <mxPoint x="65" y="950" as="sourcePoint" />
            <mxPoint x="65" y="995" as="targetPoint" />
            <Array as="points">
              <mxPoint x="-20" y="910" />
              <mxPoint x="-20" y="1180" />
            </Array>
          </mxGeometry>
        </mxCell>
        <mxCell id="BLjHXwS-Ki5e7VddTH0n-14" value="Request To&lt;br&gt;Delete Movie" style="endArrow=classic;html=1;rounded=0;" edge="1" parent="7baba1c4bc27f4b0-2">
          <mxGeometry width="50" height="50" relative="1" as="geometry">
            <mxPoint x="55" y="1020" as="sourcePoint" />
            <mxPoint x="185" y="1020" as="targetPoint" />
          </mxGeometry>
        </mxCell>
        <mxCell id="BLjHXwS-Ki5e7VddTH0n-15" value="Response Result" style="endArrow=classic;html=1;rounded=0;" edge="1" parent="7baba1c4bc27f4b0-2">
          <mxGeometry width="50" height="50" relative="1" as="geometry">
            <mxPoint x="185" y="1080" as="sourcePoint" />
            <mxPoint x="55" y="1080" as="targetPoint" />
            <Array as="points">
              <mxPoint x="100" y="1080" />
            </Array>
            <mxPoint as="offset" />
          </mxGeometry>
        </mxCell>
        <mxCell id="BLjHXwS-Ki5e7VddTH0n-17" value="Request to&lt;br&gt;Add Movie" style="endArrow=classic;html=1;rounded=0;" edge="1" parent="7baba1c4bc27f4b0-2">
          <mxGeometry width="50" height="50" relative="1" as="geometry">
            <mxPoint x="55" y="1180" as="sourcePoint" />
            <mxPoint x="185" y="1180" as="targetPoint" />
          </mxGeometry>
        </mxCell>
        <mxCell id="7baba1c4bc27f4b0-3" value="Backend" style="shape=umlLifeline;perimeter=lifelinePerimeter;whiteSpace=wrap;html=1;container=1;collapsible=0;recursiveResize=0;outlineConnect=0;rounded=1;shadow=0;comic=0;labelBackgroundColor=none;strokeWidth=1;fontFamily=Verdana;fontSize=12;align=center;" parent="1" vertex="1">
          <mxGeometry x="400" y="80" width="100" height="1300" as="geometry" />
        </mxCell>
        <mxCell id="7baba1c4bc27f4b0-13" value="Admin&lt;br&gt;Controller" style="html=1;points=[];perimeter=orthogonalPerimeter;rounded=0;shadow=0;comic=0;labelBackgroundColor=none;strokeWidth=1;fontFamily=Verdana;fontSize=12;align=center;" parent="7baba1c4bc27f4b0-3" vertex="1">
          <mxGeometry x="45" y="100" width="10" height="1180" as="geometry" />
        </mxCell>
        <mxCell id="BLjHXwS-Ki5e7VddTH0n-8" value="Load All&lt;br&gt;Movies Information" style="endArrow=classic;html=1;rounded=0;startArrow=block;startFill=1;" edge="1" parent="7baba1c4bc27f4b0-3">
          <mxGeometry width="50" height="50" relative="1" as="geometry">
            <mxPoint x="55" y="800" as="sourcePoint" />
            <mxPoint x="205" y="800" as="targetPoint" />
            <Array as="points">
              <mxPoint x="140" y="800" />
            </Array>
          </mxGeometry>
        </mxCell>
        <mxCell id="BLjHXwS-Ki5e7VddTH0n-16" value="Update Data" style="endArrow=classic;html=1;rounded=0;" edge="1" parent="7baba1c4bc27f4b0-3" target="CH1mQGG2WMRYYYk6lB7n-34">
          <mxGeometry width="50" height="50" relative="1" as="geometry">
            <mxPoint x="55" y="1020" as="sourcePoint" />
            <mxPoint x="205" y="1020" as="targetPoint" />
            <Array as="points">
              <mxPoint x="140" y="990" />
            </Array>
          </mxGeometry>
        </mxCell>
        <mxCell id="BLjHXwS-Ki5e7VddTH0n-18" value="Add New Data" style="endArrow=classic;html=1;rounded=0;" edge="1" parent="7baba1c4bc27f4b0-3" target="CH1mQGG2WMRYYYk6lB7n-34">
          <mxGeometry width="50" height="50" relative="1" as="geometry">
            <mxPoint x="55" y="1180" as="sourcePoint" />
            <mxPoint x="205" y="1150" as="targetPoint" />
            <Array as="points">
              <mxPoint x="140" y="1180" />
            </Array>
          </mxGeometry>
        </mxCell>
        <mxCell id="BLjHXwS-Ki5e7VddTH0n-19" value="Response Result" style="endArrow=classic;html=1;rounded=0;" edge="1" parent="7baba1c4bc27f4b0-3">
          <mxGeometry width="50" height="50" relative="1" as="geometry">
            <mxPoint x="45" y="1260" as="sourcePoint" />
            <mxPoint x="-85" y="1260" as="targetPoint" />
            <Array as="points">
              <mxPoint x="-40" y="1260" />
            </Array>
            <mxPoint as="offset" />
          </mxGeometry>
        </mxCell>
        <mxCell id="7baba1c4bc27f4b0-4" value="Database" style="shape=umlLifeline;perimeter=lifelinePerimeter;whiteSpace=wrap;html=1;container=1;collapsible=0;recursiveResize=0;outlineConnect=0;rounded=1;shadow=0;comic=0;labelBackgroundColor=none;strokeWidth=1;fontFamily=Verdana;fontSize=12;align=center;" parent="1" vertex="1">
          <mxGeometry x="560" y="80" width="100" height="1300" as="geometry" />
        </mxCell>
        <mxCell id="7baba1c4bc27f4b0-16" value="Admin&lt;br&gt;Collection" style="html=1;points=[];perimeter=orthogonalPerimeter;rounded=0;shadow=0;comic=0;labelBackgroundColor=none;strokeWidth=1;fontFamily=Verdana;fontSize=12;align=center;" parent="7baba1c4bc27f4b0-4" vertex="1">
          <mxGeometry x="45" y="100" width="10" height="100" as="geometry" />
        </mxCell>
        <mxCell id="CH1mQGG2WMRYYYk6lB7n-23" value="JWT&lt;br&gt;Token&lt;br&gt;Collection" style="html=1;points=[];perimeter=orthogonalPerimeter;rounded=0;shadow=0;comic=0;labelBackgroundColor=none;strokeWidth=1;fontFamily=Verdana;fontSize=12;align=center;" parent="7baba1c4bc27f4b0-4" vertex="1">
          <mxGeometry x="45" y="220" width="10" height="150" as="geometry" />
        </mxCell>
        <mxCell id="CH1mQGG2WMRYYYk6lB7n-34" value="Movies&lt;br&gt;Collection" style="html=1;points=[];perimeter=orthogonalPerimeter;rounded=0;shadow=0;comic=0;labelBackgroundColor=none;strokeWidth=1;fontFamily=Verdana;fontSize=12;align=center;" parent="7baba1c4bc27f4b0-4" vertex="1">
          <mxGeometry x="45" y="780" width="10" height="500" as="geometry" />
        </mxCell>
        <mxCell id="CH1mQGG2WMRYYYk6lB7n-42" value="Users&lt;br&gt;Collection" style="html=1;points=[];perimeter=orthogonalPerimeter;rounded=0;shadow=0;comic=0;labelBackgroundColor=none;strokeWidth=1;fontFamily=Verdana;fontSize=12;align=center;" parent="7baba1c4bc27f4b0-4" vertex="1">
          <mxGeometry x="45" y="410" width="10" height="350" as="geometry" />
        </mxCell>
        <mxCell id="7baba1c4bc27f4b0-8" value="Admin" style="shape=umlLifeline;perimeter=lifelinePerimeter;whiteSpace=wrap;html=1;container=1;collapsible=0;recursiveResize=0;outlineConnect=0;rounded=1;shadow=0;comic=0;labelBackgroundColor=none;strokeWidth=1;fontFamily=Verdana;fontSize=12;align=center;" parent="1" vertex="1">
          <mxGeometry x="100" y="80" width="100" height="1300" as="geometry" />
        </mxCell>
        <mxCell id="owGPaouUWZI6I00EfRdI-1" value="" style="shape=umlActor;verticalLabelPosition=bottom;verticalAlign=top;html=1;outlineConnect=0;" parent="1" vertex="1">
          <mxGeometry x="135" y="17.5" width="30" height="60" as="geometry" />
        </mxCell>
        <mxCell id="CH1mQGG2WMRYYYk6lB7n-2" value="Insert Login&lt;br&gt;Credential" style="endArrow=classic;html=1;rounded=0;" parent="1" source="7baba1c4bc27f4b0-8" target="CH1mQGG2WMRYYYk6lB7n-1" edge="1">
          <mxGeometry x="-0.0045" width="50" height="50" relative="1" as="geometry">
            <mxPoint x="-50" y="550" as="sourcePoint" />
            <mxPoint y="500" as="targetPoint" />
            <Array as="points">
              <mxPoint x="250" y="200" />
            </Array>
            <mxPoint as="offset" />
          </mxGeometry>
        </mxCell>
        <mxCell id="CH1mQGG2WMRYYYk6lB7n-3" value="Request to&lt;br&gt;create JWT token" style="endArrow=classic;html=1;rounded=0;" parent="1" source="CH1mQGG2WMRYYYk6lB7n-1" target="7baba1c4bc27f4b0-13" edge="1">
          <mxGeometry width="50" height="50" relative="1" as="geometry">
            <mxPoint x="340" y="570" as="sourcePoint" />
            <mxPoint x="390" y="520" as="targetPoint" />
            <Array as="points">
              <mxPoint x="400" y="200" />
            </Array>
            <mxPoint as="offset" />
          </mxGeometry>
        </mxCell>
        <mxCell id="CH1mQGG2WMRYYYk6lB7n-4" value="Check&lt;br&gt;Credential" style="rounded=0;orthogonalLoop=1;jettySize=auto;html=1;startArrow=block;startFill=1;" parent="1" source="7baba1c4bc27f4b0-13" target="7baba1c4bc27f4b0-16" edge="1">
          <mxGeometry relative="1" as="geometry">
            <Array as="points">
              <mxPoint x="550" y="200" />
            </Array>
          </mxGeometry>
        </mxCell>
        <mxCell id="CH1mQGG2WMRYYYk6lB7n-27" value="New Token" style="endArrow=classic;html=1;rounded=0;" parent="1" source="7baba1c4bc27f4b0-13" target="CH1mQGG2WMRYYYk6lB7n-23" edge="1">
          <mxGeometry width="50" height="50" relative="1" as="geometry">
            <mxPoint x="510" y="540" as="sourcePoint" />
            <mxPoint x="560" y="490" as="targetPoint" />
            <Array as="points">
              <mxPoint x="550" y="320" />
            </Array>
          </mxGeometry>
        </mxCell>
        <mxCell id="CH1mQGG2WMRYYYk6lB7n-28" value="Request to&lt;br&gt;check JWT Token" style="endArrow=classic;html=1;rounded=0;" parent="1" source="CH1mQGG2WMRYYYk6lB7n-13" target="7baba1c4bc27f4b0-13" edge="1">
          <mxGeometry width="50" height="50" relative="1" as="geometry">
            <mxPoint x="310" y="650" as="sourcePoint" />
            <mxPoint x="360" y="600" as="targetPoint" />
            <Array as="points">
              <mxPoint x="390" y="390" />
            </Array>
          </mxGeometry>
        </mxCell>
        <mxCell id="CH1mQGG2WMRYYYk6lB7n-29" value="Check Token&lt;br&gt;Expire Date" style="endArrow=classic;html=1;rounded=0;startArrow=block;startFill=1;" parent="1" source="7baba1c4bc27f4b0-13" target="CH1mQGG2WMRYYYk6lB7n-23" edge="1">
          <mxGeometry width="50" height="50" relative="1" as="geometry">
            <mxPoint x="445" y="640" as="sourcePoint" />
            <mxPoint x="595" y="640" as="targetPoint" />
            <Array as="points">
              <mxPoint x="480" y="400" />
              <mxPoint x="540" y="400" />
            </Array>
          </mxGeometry>
        </mxCell>
        <mxCell id="CH1mQGG2WMRYYYk6lB7n-30" value="Response&lt;br&gt;Result" style="endArrow=classic;html=1;rounded=0;" parent="1" source="7baba1c4bc27f4b0-13" target="CH1mQGG2WMRYYYk6lB7n-13" edge="1">
          <mxGeometry width="50" height="50" relative="1" as="geometry">
            <mxPoint x="330" y="710" as="sourcePoint" />
            <mxPoint x="380" y="660" as="targetPoint" />
            <Array as="points">
              <mxPoint x="390" y="420" />
            </Array>
          </mxGeometry>
        </mxCell>
        <mxCell id="CH1mQGG2WMRYYYk6lB7n-35" value="Request Users&lt;br&gt;Lists" style="endArrow=classic;html=1;rounded=0;" parent="1" source="CH1mQGG2WMRYYYk6lB7n-16" target="7baba1c4bc27f4b0-13" edge="1">
          <mxGeometry width="50" height="50" relative="1" as="geometry">
            <mxPoint x="295" y="600" as="sourcePoint" />
            <mxPoint x="445" y="600" as="targetPoint" />
            <Array as="points">
              <mxPoint x="390" y="580" />
            </Array>
          </mxGeometry>
        </mxCell>
        <mxCell id="CH1mQGG2WMRYYYk6lB7n-37" value="Response Movies&lt;br&gt;WIth Order" style="endArrow=classic;html=1;rounded=0;" parent="1" source="7baba1c4bc27f4b0-13" target="CH1mQGG2WMRYYYk6lB7n-16" edge="1">
          <mxGeometry width="50" height="50" relative="1" as="geometry">
            <mxPoint x="360" y="940" as="sourcePoint" />
            <mxPoint x="410" y="890" as="targetPoint" />
            <Array as="points">
              <mxPoint x="380" y="620" />
            </Array>
          </mxGeometry>
        </mxCell>
        <mxCell id="CH1mQGG2WMRYYYk6lB7n-43" value="Load All&lt;br&gt;Users Information" style="endArrow=classic;html=1;rounded=0;startArrow=block;startFill=1;" parent="1" source="7baba1c4bc27f4b0-13" target="CH1mQGG2WMRYYYk6lB7n-42" edge="1">
          <mxGeometry width="50" height="50" relative="1" as="geometry">
            <mxPoint x="455" y="820" as="sourcePoint" />
            <mxPoint x="560" y="810" as="targetPoint" />
            <Array as="points">
              <mxPoint x="540" y="580" />
            </Array>
          </mxGeometry>
        </mxCell>
        <mxCell id="BLjHXwS-Ki5e7VddTH0n-3" value="Request To&lt;br&gt;Delete User" style="endArrow=classic;html=1;rounded=0;" edge="1" parent="1" source="BLjHXwS-Ki5e7VddTH0n-2" target="7baba1c4bc27f4b0-13">
          <mxGeometry width="50" height="50" relative="1" as="geometry">
            <mxPoint x="360" y="800" as="sourcePoint" />
            <mxPoint x="410" y="750" as="targetPoint" />
          </mxGeometry>
        </mxCell>
        <mxCell id="BLjHXwS-Ki5e7VddTH0n-4" value="Update Data" style="endArrow=classic;html=1;rounded=0;" edge="1" parent="1" source="7baba1c4bc27f4b0-13" target="CH1mQGG2WMRYYYk6lB7n-42">
          <mxGeometry width="50" height="50" relative="1" as="geometry">
            <mxPoint x="540" y="830" as="sourcePoint" />
            <mxPoint x="590" y="780" as="targetPoint" />
            <Array as="points">
              <mxPoint x="540" y="790" />
            </Array>
          </mxGeometry>
        </mxCell>
        <mxCell id="BLjHXwS-Ki5e7VddTH0n-5" value="Response Result" style="endArrow=classic;html=1;rounded=0;" edge="1" parent="1" source="7baba1c4bc27f4b0-13" target="BLjHXwS-Ki5e7VddTH0n-2">
          <mxGeometry width="50" height="50" relative="1" as="geometry">
            <mxPoint x="230" y="880" as="sourcePoint" />
            <mxPoint x="280" y="830" as="targetPoint" />
            <Array as="points">
              <mxPoint x="360" y="830" />
            </Array>
            <mxPoint as="offset" />
          </mxGeometry>
        </mxCell>
      </root>
    </mxGraphModel>
  </diagram>
</mxfile>
